<svg version="1.1" id="Layer_1" xmlns="http://www.w3.org/2000/svg" xmlns:xlink="http://www.w3.org/1999/xlink" x="0px" y="0px"
	 width="100%" viewBox="0 0 1024 1024" enable-background="new 0 0 1024 1024" xml:space="preserve">
<path fill="#000000" opacity="1.000000" stroke="none" 
	d="
M669.414551,198.417603 
	C684.247498,183.302322 698.430298,168.012482 713.553101,153.717056 
	C729.001160,139.114151 747.806213,131.304718 769.281494,131.832352 
	C783.146484,132.172989 796.180603,136.248047 807.566895,144.542419 
	C810.511169,146.687210 813.074646,147.059692 816.153992,144.879822 
	C820.743958,141.630569 825.141113,142.614273 829.525513,145.717239 
	C833.784851,148.731644 837.519897,152.270920 840.899963,156.178452 
	C846.884155,163.096451 847.768005,171.458572 843.117676,179.230850 
	C840.617432,183.409546 839.948059,186.299484 844.349243,190.186157 
	C851.156860,196.198074 853.228149,205.083008 854.063293,213.678543 
	C854.909851,222.391068 854.559448,231.206406 852.971436,240.009399 
	C850.271057,254.977753 842.176147,266.739319 832.026917,277.284698 
	C817.935669,291.925812 803.856323,306.616486 789.062134,320.531219 
	C776.516357,332.331085 760.794617,338.271912 743.697510,338.872986 
	C733.344116,339.236969 722.679810,338.713989 713.006042,333.680695 
	C709.621887,331.919922 707.917236,332.751617 705.088074,336.074219 
	C697.600769,344.867340 689.590027,353.369141 679.854797,360.597870 
	C682.694702,375.981201 680.071838,391.208557 673.622620,405.767120 
	C669.811462,414.370300 663.487549,421.435394 657.137146,428.184631 
	C642.300293,443.953278 627.419983,459.725739 611.771179,474.673737 
	C595.200012,490.502777 575.313049,497.473633 552.213501,492.877869 
	C544.717896,491.386536 537.251587,489.748291 529.762146,488.225555 
	C525.434875,487.345703 523.084473,485.817413 524.388550,480.440918 
	C527.206421,468.823425 528.439148,456.906525 529.722717,445.017822 
	C530.730835,435.679810 532.710327,434.245483 541.920227,435.550018 
	C549.316895,436.597717 556.716980,437.627472 564.096802,438.784821 
	C567.897156,439.380768 570.936646,438.136505 573.634583,435.580780 
	C588.860901,421.157379 603.727844,406.373901 618.183960,391.178406 
	C618.985168,390.336243 619.733276,389.429413 620.401855,388.479279 
	C621.058044,387.546753 621.966553,386.525757 621.152039,385.317688 
	C620.179871,383.875763 618.875488,384.566162 617.568176,384.921417 
	C596.767395,390.573730 583.566284,378.443024 580.106323,362.269043 
	C579.125366,357.683319 580.467590,353.345093 581.612732,349.026886 
	C582.500671,345.678650 583.768127,342.431061 584.969788,338.830322 
	C582.254944,338.529175 580.766724,340.077301 579.153564,341.435577 
	C563.206543,354.863373 548.713684,369.831726 533.703857,384.253296 
	C531.401001,386.466034 530.206604,388.930878 530.169373,392.173706 
	C530.133240,395.324310 529.482483,398.463867 529.363220,401.618164 
	C528.793091,416.686981 515.492004,424.431702 502.277954,416.800751 
	C496.655273,413.553772 491.447784,414.529907 485.915802,415.551361 
	C475.235718,417.523438 474.532654,417.197662 474.024414,406.384796 
	C473.572144,396.763062 473.099274,387.138245 474.471313,377.485565 
	C475.410858,370.875854 478.496918,365.591125 482.548767,360.641235 
	C490.703369,350.679291 500.579712,342.415863 509.596954,333.304413 
	C519.670715,323.125488 529.558105,312.754181 539.846863,302.797546 
	C561.441833,281.899689 586.583923,277.667603 614.523376,287.619781 
	C618.275269,288.956177 622.007751,291.502106 625.727112,291.461456 
	C629.734192,291.417603 630.293945,285.886169 633.263855,283.505920 
	C638.685120,279.161133 642.012634,272.565796 648.535767,269.336395 
	C650.694214,268.267822 649.821472,266.066711 649.494080,264.375641 
	C644.586182,239.027191 650.577637,216.971741 669.414551,198.417603 
M769.616577,260.103180 
	C777.850098,252.092789 786.111145,244.110245 794.291016,236.045425 
	C795.697754,234.658478 796.820374,232.963959 797.957458,231.330215 
	C798.648132,230.337845 798.981995,229.145020 797.897400,228.164459 
	C796.967285,227.323578 796.047546,227.907547 795.166870,228.405060 
	C781.371643,236.198654 761.898193,227.534943 758.288330,210.550507 
	C756.890869,203.975815 756.450989,197.498581 757.319336,189.233154 
	C739.815674,199.833374 727.761169,214.057831 715.779907,228.656982 
	C717.864258,230.380066 719.865051,230.433105 721.804749,230.823563 
	C730.769470,232.628159 738.078918,236.721771 741.466248,245.822571 
	C743.789429,252.064453 742.614624,258.286285 740.886719,264.404175 
	C739.460999,269.451965 737.751099,274.419434 736.032410,279.847992 
	C741.967224,281.224213 747.230652,281.384003 751.744507,277.123688 
	C757.556152,271.638306 763.309448,266.091064 769.616577,260.103180 
M673.789001,284.290863 
	C670.486084,287.579346 667.109192,290.797455 663.894836,294.170319 
	C656.061218,302.390259 646.133667,308.319427 638.544373,316.684662 
	C629.235413,326.945526 619.412231,336.595306 608.952087,345.639282 
	C606.412537,347.834991 604.308960,350.333344 602.987244,353.516663 
	C601.815125,356.339661 603.025269,358.390961 604.723145,360.299591 
	C606.596191,362.405029 608.852905,362.011688 611.109497,360.879700 
	C613.523376,359.668732 615.536133,357.934906 617.426270,356.045868 
	C629.074951,344.403717 640.489319,332.515259 652.421326,321.171234 
	C667.130310,307.186981 682.345032,293.736176 697.183044,279.885345 
	C702.901306,274.547516 708.557495,269.171722 714.811401,264.454407 
	C717.711487,262.266907 718.590332,259.554291 716.785400,256.151703 
	C714.997498,252.781143 712.071655,252.756897 709.023254,253.501404 
	C705.384216,254.390152 702.392883,256.490967 699.722534,259.095642 
	C691.263794,267.346527 682.776428,275.568024 673.789001,284.290863 
M742.206909,302.204895 
	C738.306702,302.630219 734.615906,301.646698 730.910034,300.620850 
	C727.863708,299.777618 724.774902,298.905029 721.565186,299.359833 
	C719.218445,299.692352 716.606812,300.339447 715.909424,302.787598 
	C715.247803,305.110260 717.793213,306.071960 719.322510,307.187378 
	C733.026184,317.182526 757.696045,315.399231 770.214050,302.518311 
	C785.765137,286.516357 802.070740,271.292694 817.651978,255.339218 
	C827.645935,245.106537 832.955811,232.841904 831.667725,218.253326 
	C831.203491,212.994873 829.595215,208.067413 827.103455,203.350815 
	C823.776184,204.754639 822.217468,207.205170 820.201172,209.146576 
	C817.481567,211.765106 815.489197,214.186966 818.826172,217.937714 
	C820.182861,219.462570 820.310547,221.895401 820.363525,224.126511 
	C820.596802,233.947540 815.499512,241.171524 809.019226,247.713760 
	C795.886353,260.971954 782.430420,273.924377 769.656494,287.518585 
	C762.225952,295.426270 753.641785,300.335846 742.206909,302.204895 
M701.911682,208.409714 
	C707.194275,203.340729 712.716492,198.524963 717.568726,193.007111 
	C726.853638,182.448471 737.082825,173.014938 749.684387,166.436310 
	C758.221375,161.979614 767.278931,161.520645 776.414185,163.374161 
	C783.083618,164.727386 783.993286,164.655136 787.165955,157.825211 
	C782.208679,155.192139 777.196777,152.885223 771.460449,152.219910 
	C752.469055,150.017181 737.158508,158.242310 723.989868,170.354950 
	C707.819519,185.228561 692.022583,200.597931 677.720215,217.330338 
	C668.282104,228.372025 666.150635,241.101273 671.036804,255.163971 
	C675.499207,253.733368 677.556519,251.267105 677.822876,246.744583 
	C678.303345,238.586960 681.368103,231.061691 686.283752,224.723923 
	C690.728943,218.992706 696.312439,214.144394 701.911682,208.409714 
M645.191406,405.684448 
	C657.811768,391.689209 658.242310,375.320740 655.047241,357.847107 
	C651.025085,358.533783 649.353821,361.562622 646.813843,363.287262 
	C644.513672,364.849091 643.854553,367.024200 644.789001,369.838531 
	C648.676331,381.546844 644.404053,391.679138 636.439331,399.447388 
	C619.267212,416.195831 603.199829,434.029663 585.694092,450.431976 
	C580.433716,455.360779 574.510254,458.734741 567.068970,458.895599 
	C561.968567,459.005890 557.253540,457.421539 552.473694,455.975494 
	C547.873779,454.583923 546.542114,455.615265 545.532593,460.857941 
	C544.827454,464.520294 545.898865,466.539185 550.016296,466.738800 
	C552.975708,466.882263 555.893372,467.777832 558.842773,468.257233 
	C569.654846,470.014679 580.157776,468.791809 588.559753,461.532410 
	C598.359192,453.065521 607.797546,444.039001 616.410156,434.379303 
	C625.310608,424.396759 635.093323,415.409210 645.191406,405.684448 
M505.560089,388.019501 
	C504.428528,381.635681 507.277435,376.658356 511.553101,372.481415 
	C520.356445,363.881500 529.503723,355.632233 538.262695,346.988647 
	C546.655151,338.706757 554.299805,329.622528 563.060486,321.769318 
	C574.553162,311.467041 588.003357,308.382324 602.861816,314.179108 
	C604.249695,314.720581 605.649536,315.388275 607.098816,315.578308 
	C609.235840,315.858521 610.398499,314.251709 611.300537,312.620422 
	C612.119019,311.140076 611.298645,309.967010 610.070007,309.268890 
	C602.368469,304.892914 594.546692,300.434570 585.276794,301.519928 
	C572.547913,303.010284 561.137451,307.561127 552.340088,317.421356 
	C549.575256,320.520203 546.761719,323.614258 543.674561,326.380280 
	C530.032654,338.603241 517.016724,351.473663 504.105316,364.449036 
	C497.477051,371.110077 494.334961,379.297150 494.032837,388.720703 
	C493.890778,393.152039 495.186737,394.895233 499.953613,394.820190 
	C504.494049,394.748688 506.599609,393.590881 505.560089,388.019501 
M796.872864,196.381653 
	C803.778809,189.170883 810.691711,181.966766 817.588318,174.747086 
	C822.792847,169.298691 822.824951,167.224426 817.721497,161.064758 
	C813.399353,162.406158 809.806152,164.939117 806.585632,168.175720 
	C799.424194,175.372986 792.420227,182.738678 784.623901,189.275589 
	C782.012085,191.465485 780.483337,194.425644 778.690430,197.234451 
	C776.444275,200.753525 778.004578,203.259369 780.547974,205.484756 
	C783.181702,207.789185 785.887207,206.949280 788.186584,204.904938 
	C791.041748,202.366348 793.693481,199.598953 796.872864,196.381653 
z"/>
<path fill="#000000" opacity="1.000000" stroke="none" 
	d="
M301.703247,516.826843 
	C300.466736,503.427521 302.072388,490.859833 306.635468,478.644531 
	C308.826538,472.779236 311.734619,467.279907 316.243134,463.022614 
	C334.785828,445.513092 352.214508,426.916504 369.707245,408.394531 
	C381.326843,396.091278 396.156342,390.987823 412.008759,387.717621 
	C415.575562,386.981842 419.241211,386.738007 422.831451,386.099579 
	C426.642822,385.421814 428.649170,386.616333 428.350037,390.746490 
	C428.241882,392.239594 428.357178,393.748322 428.262848,395.243134 
	C428.075531,398.210663 429.557983,399.461548 432.388062,399.648010 
	C437.029327,399.953796 441.658234,400.461700 446.301544,400.718292 
	C449.207367,400.878845 450.212921,402.027252 449.233032,404.867676 
	C445.557953,415.521179 445.155457,426.679810 444.381622,437.758911 
	C444.189117,440.515350 443.222015,441.738586 440.596832,442.703766 
	C435.163666,444.701385 429.794189,444.535980 424.415863,443.114410 
	C415.895386,440.862396 409.208374,442.841370 402.978912,449.504944 
	C388.875793,464.590942 373.867096,478.824738 360.349792,494.476532 
	C358.282471,496.870300 356.189545,499.220886 355.439240,503.356995 
	C360.495087,503.057556 365.297119,502.853607 370.084412,502.467194 
	C374.965027,502.073242 379.694946,502.626984 384.209229,504.491333 
	C394.466949,508.727722 398.319061,515.893677 397.583099,529.128906 
	C397.499939,530.624268 397.269531,532.125427 397.346008,533.611633 
	C397.425232,535.151733 395.643524,537.008972 397.646393,538.181641 
	C399.719330,539.395386 401.462982,537.866028 403.100983,536.767334 
	C407.712982,533.673889 411.312347,529.464233 415.083313,525.487976 
	C425.514191,514.489258 435.706665,503.264008 446.164459,492.291382 
	C450.554657,487.685028 453.600403,482.551666 454.730835,476.269867 
	C455.435913,472.351929 457.980988,470.903290 461.672058,471.964172 
	C472.814972,475.166870 484.030304,476.969055 495.644165,474.941559 
	C498.044769,474.522522 500.331970,475.784943 499.929749,478.510834 
	C498.440857,488.601288 503.321106,497.297302 505.678009,506.538788 
	C506.273071,508.871918 506.988251,511.082397 504.621979,512.868652 
	C492.041443,522.365417 482.194153,534.654785 471.081940,545.653564 
	C459.722168,556.897339 448.826447,568.728821 436.592346,578.943298 
	C416.761353,595.500610 394.034149,599.995850 369.330414,590.963013 
	C366.110046,589.785522 363.264832,587.587585 360.221130,585.907104 
	C360.044922,585.809814 359.644562,586.118530 358.635742,586.526611 
	C361.071106,592.095642 366.657562,594.465393 370.853790,598.852539 
	C361.467407,609.239319 350.581390,617.905273 340.094574,628.006287 
	C342.748688,632.709167 345.713379,637.780945 347.640259,643.453308 
	C353.205933,659.837891 351.678284,675.851013 346.388214,691.849487 
	C343.478394,700.649414 337.415833,707.621277 331.266083,713.929688 
	C314.178497,731.457886 297.438721,749.337097 279.662292,766.205627 
	C257.922394,786.835144 228.006607,792.289062 200.637497,779.967163 
	C191.846298,776.009155 191.834549,775.996826 184.796219,782.706726 
	C180.095764,787.187927 175.508881,791.790710 170.738205,796.195129 
	C164.089798,802.333191 153.438950,801.468689 147.783463,794.364807 
	C146.339691,792.551208 144.981125,790.581238 144.030472,788.480835 
	C141.532303,782.961060 138.220490,778.094116 133.889816,773.835449 
	C130.347900,770.352295 130.421280,766.550354 133.563568,762.702515 
	C139.042068,755.993896 144.265610,749.065002 149.981277,742.567261 
	C152.941071,739.202454 152.781601,736.446533 150.816940,732.745361 
	C146.772659,725.126282 142.098267,717.653809 141.226410,708.795471 
	C138.876770,684.921997 140.699493,662.435059 159.259735,644.055359 
	C173.448181,630.004883 186.511429,614.821350 200.147736,600.209534 
	C218.351791,580.703125 240.478653,572.313232 267.162415,576.391235 
	C271.552704,577.062134 275.941162,577.939026 280.821625,578.590027 
	C279.988464,572.290771 283.922607,568.557861 287.709259,564.951172 
	C292.892914,560.013977 297.267853,554.248413 303.067841,549.953552 
	C304.265656,549.066528 305.459015,548.109619 306.794373,547.483337 
	C312.322723,544.890625 312.455719,544.870422 309.396790,539.302307 
	C305.590210,532.373169 302.992004,525.063293 301.703247,516.826843 
M285.615875,659.308533 
	C283.782532,660.095154 281.979523,660.963745 280.110992,661.655334 
	C264.898773,667.285522 251.654434,660.796814 246.480240,645.436218 
	C245.155655,641.503906 244.744659,637.466431 244.290359,632.831177 
	C243.197464,633.710754 242.534180,634.140625 241.996246,634.692627 
	C229.341431,647.679382 216.700409,660.679504 204.056229,673.676636 
	C201.150894,676.663025 198.151550,679.604126 196.579254,683.566589 
	C195.563950,686.125366 194.413986,688.783081 196.291870,691.475342 
	C201.412720,690.669373 206.288147,689.369629 211.196869,689.228516 
	C226.407059,688.791382 237.468781,692.922058 238.316071,711.966187 
	C238.560287,717.455688 236.960175,722.707458 235.966354,728.029236 
	C239.081192,729.440369 241.013718,727.679260 242.839890,726.034424 
	C260.186066,710.411011 275.331116,692.659546 291.204468,675.622803 
	C296.449066,669.993896 295.942627,661.918762 291.088318,656.578064 
	C289.522339,657.363159 287.902191,658.175415 285.615875,659.308533 
M308.411072,635.810364 
	C304.916473,638.200134 303.804749,640.306702 307.600769,643.947510 
	C320.062042,655.899170 318.293213,674.705872 307.848114,685.799011 
	C291.077911,703.609863 273.967102,721.101746 256.872345,738.603516 
	C254.106247,741.435425 250.904160,743.998962 247.508530,746.024048 
	C241.456207,749.633667 234.926697,752.466858 227.655426,751.145691 
	C224.589569,750.588623 221.815308,748.659851 219.096466,751.851929 
	C217.021591,754.287964 213.922043,755.897583 212.791611,759.638977 
	C219.694366,762.521057 226.506760,764.453796 233.795135,763.367249 
	C245.406921,761.636230 255.017746,756.152100 263.140625,747.680481 
	C280.527313,729.547302 298.877167,712.358582 315.917877,693.878174 
	C320.161987,689.275513 324.130798,684.551514 325.478302,678.352844 
	C328.195679,665.852905 328.535126,653.584595 320.516418,642.507019 
	C319.547241,641.168152 318.641998,639.708557 318.068542,638.170227 
	C315.297882,630.737305 315.076447,630.640015 308.411072,635.810364 
M281.427917,628.927551 
	C295.938660,611.316284 311.837097,594.948975 327.698822,578.605774 
	C342.562622,563.290833 354.830383,545.375366 372.793518,533.089783 
	C375.737793,531.076111 376.740875,527.687683 374.758270,524.210632 
	C372.712372,520.622437 369.388611,520.463684 366.053650,521.755615 
	C363.932465,522.577332 361.786682,523.837708 360.193817,525.440125 
	C349.417419,536.281128 338.476837,546.984192 328.180817,558.271484 
	C313.505402,574.359741 299.128082,590.712402 283.736176,606.138733 
	C277.636108,612.252502 271.526031,618.416077 267.233582,626.055237 
	C265.449188,629.230835 264.487152,632.466064 266.271027,635.999756 
	C267.872894,639.172913 270.101471,640.256470 272.938812,637.646606 
	C275.745728,635.064697 278.279999,632.186401 281.427917,628.927551 
M237.937042,596.371460 
	C228.112854,599.933105 220.244690,606.284363 213.529068,614.051758 
	C200.770416,628.808716 186.695694,642.259705 172.756348,655.854858 
	C171.101822,657.468506 169.677673,659.354126 168.337585,661.248657 
	C160.034515,672.987061 158.786545,686.294617 160.700729,699.927185 
	C161.455109,705.299927 162.920288,710.941772 166.878952,715.462952 
	C171.603317,711.956116 174.294464,708.845215 172.219666,702.212524 
	C167.938583,688.526733 170.076584,675.788269 180.624207,664.923279 
	C190.812485,654.428589 201.014053,643.936035 210.395111,632.658020 
	C216.120697,625.774658 222.692535,619.582397 229.026047,613.220886 
	C235.321518,606.897583 243.168457,603.735474 251.980301,603.915161 
	C258.715546,604.052429 261.406036,602.950745 264.191833,596.529480 
	C255.734390,592.101379 247.224609,593.612183 237.937042,596.371460 
M420.048645,409.103943 
	C407.679321,406.300323 396.685638,409.862335 387.759033,418.065491 
	C368.779205,435.507080 350.921143,454.143555 332.746826,472.411957 
	C321.692322,483.523590 319.576843,498.500092 321.916748,513.869202 
	C322.569824,518.158936 323.764893,522.279114 327.337891,525.172913 
	C334.090424,521.153503 334.130829,520.893555 332.205139,513.808960 
	C329.651794,504.415466 330.049133,495.122406 335.744263,487.047638 
	C340.616180,480.140167 346.306183,473.789581 352.294464,467.741638 
	C363.988190,455.931488 376.066071,444.439606 386.979401,431.938232 
	C395.868134,421.756134 406.671722,418.557800 419.369507,418.681610 
	C421.763885,418.704926 425.083832,421.322357 426.501678,417.811005 
	C427.872009,414.417206 424.506897,412.569763 422.418793,410.520172 
	C421.953827,410.063751 421.326324,409.772949 420.048645,409.103943 
M415.348419,550.921021 
	C408.194824,556.052795 400.847565,560.233093 391.399353,558.420349 
	C386.417816,557.464661 382.410492,559.927063 379.058441,563.584839 
	C376.438110,566.444214 377.202240,568.286133 380.558685,569.458313 
	C385.146545,571.060547 389.880402,572.249207 394.744537,571.526550 
	C407.109680,569.689453 417.968597,564.586853 426.835999,555.673584 
	C437.986053,544.465881 448.881836,533.036621 459.084991,520.920837 
	C464.519928,514.467224 470.261108,508.141815 476.988831,502.874939 
	C479.156952,501.177582 482.284821,499.689026 481.438049,496.318939 
	C480.654144,493.199188 477.306030,492.780548 474.702942,491.796356 
	C470.877625,490.350006 469.036896,493.225647 467.559235,495.690704 
	C463.650940,502.210541 458.345886,507.464661 453.074432,512.793091 
	C440.667145,525.334412 428.299469,537.914978 415.348419,550.921021 
M186.252014,747.752014 
	C188.743576,744.851013 191.093155,741.811707 193.755737,739.077209 
	C199.641846,733.032166 204.760864,726.219055 212.474792,722.033325 
	C215.390167,720.451355 218.136902,717.480530 215.610809,713.317444 
	C213.362396,709.612061 209.432587,708.731140 205.247131,711.147888 
	C202.502472,712.732788 200.130539,714.821594 197.944595,717.144470 
	C188.719772,726.947449 179.338516,736.605408 170.225815,746.510864 
	C163.383469,753.948547 156.194611,761.099548 150.326462,769.397217 
	C148.678253,771.727783 148.282242,773.688965 150.560226,775.977478 
	C152.764435,778.191833 154.585373,778.711304 157.474426,776.932068 
	C161.223465,774.623169 164.408707,771.834229 167.315247,768.588989 
	C173.419250,761.773682 179.609558,755.035645 186.252014,747.752014 
z"/>
<path fill="#000000" opacity="1.000000" stroke="none" 
	d="
M306.050323,305.213531 
	C312.607391,309.053162 316.154785,315.357391 321.188293,320.184357 
	C333.207672,331.710480 345.075043,343.397003 356.893677,355.129639 
	C361.431488,359.634430 362.346100,364.087006 360.093689,368.133942 
	C356.259705,375.022522 349.259338,376.136902 343.393005,370.550110 
	C337.123047,364.578949 330.868317,358.568085 324.967896,352.238098 
	C315.851654,342.458130 305.853455,333.696838 295.424225,325.385162 
	C288.307770,319.713623 288.076874,310.218872 294.990417,305.956146 
	C298.359650,303.878723 302.057617,304.611450 306.050323,305.213531 
z"/>
<path fill="#000000" opacity="1.000000" stroke="none" 
	d="
M653.478638,535.520447 
	C647.681091,529.753784 641.833557,524.499878 636.677917,518.637390 
	C631.523865,512.776733 631.529724,508.353180 635.537109,503.968475 
	C639.860352,499.238129 646.152405,499.140259 651.408142,504.245667 
	C663.958740,516.437195 676.805603,528.299988 689.901855,539.898315 
	C692.894165,542.548340 695.994507,545.100037 698.777466,547.957703 
	C703.749390,553.062927 703.737854,559.152161 699.007019,563.922180 
	C694.005127,568.965515 688.605225,569.200867 683.260681,564.162537 
	C673.324707,554.795837 663.564941,545.242249 653.478638,535.520447 
z"/>
<path fill="#000000" opacity="1.000000" stroke="none" 
	d="
M598.807739,589.174316 
	C590.752014,579.819885 582.403809,571.178589 575.346313,561.439453 
	C573.776062,559.272522 572.158020,557.148438 571.271912,554.598389 
	C570.077576,551.161011 570.415405,547.999817 573.348694,545.517822 
	C576.117859,543.174683 579.048645,543.373596 582.190491,544.911865 
	C589.590820,548.535156 594.726440,554.744629 600.215698,560.527588 
	C611.111389,572.006104 621.909851,583.577087 632.727478,595.129456 
	C633.977722,596.464600 635.183777,597.859680 636.257507,599.337952 
	C639.669006,604.034424 639.037048,610.702515 634.914734,614.286011 
	C630.909546,617.767639 623.143433,617.494080 619.505249,613.371460 
	C612.561157,605.502686 605.844238,597.433411 598.807739,589.174316 
z"/>
<path fill="#000000" opacity="1.000000" stroke="none" 
	d="
M364.434723,252.730286 
	C371.497223,251.603424 375.502136,254.816940 378.328949,260.504303 
	C385.962891,275.863281 394.125122,290.919708 403.508575,305.317535 
	C408.793640,313.426849 405.986359,320.186127 397.254547,321.905334 
	C392.558502,322.829895 389.637451,320.312988 387.356140,316.753937 
	C379.451782,304.422302 371.608521,292.051514 363.746857,279.692505 
	C361.603851,276.323578 359.234467,273.070679 357.395142,269.542389 
	C353.576202,262.216705 356.145996,255.968079 364.434723,252.730286 
z"/>
<path fill="#000000" opacity="1.000000" stroke="none" 
	d="
M456.822266,325.641418 
	C459.883240,332.705627 458.616760,338.944855 453.528107,343.796417 
	C448.956360,348.155121 443.294098,350.661560 436.685455,348.002075 
	C431.233429,345.808044 427.450409,342.163452 426.713196,336.046570 
	C425.892761,329.239288 428.601288,324.013062 434.265411,320.397339 
	C439.792297,316.869263 445.525085,316.862335 451.159271,320.262115 
	C453.302795,321.555603 455.154663,323.232452 456.822266,325.641418 
z"/>
<path fill="#000000" opacity="1.000000" stroke="none" 
	d="
M496.069824,599.708862 
	C499.713074,588.477539 514.765442,586.651917 522.195129,594.130981 
	C525.626526,597.585205 526.076477,601.635559 524.595154,606.087341 
	C522.524048,612.311218 518.383667,616.133240 511.837799,617.255859 
	C502.295654,618.892212 493.394287,609.107605 496.069824,599.708862 
z"/>
<path fill="#000000" opacity="1.000000" stroke="none" 
	d="
M416.068939,658.658569 
	C412.629242,653.005981 412.957672,647.662415 416.831909,643.015930 
	C420.602112,638.494263 425.705261,636.687683 431.649170,638.305359 
	C436.914032,639.738098 441.801086,644.378296 441.825104,648.789978 
	C441.857971,654.822510 439.202789,659.897095 433.983765,662.996460 
	C429.163971,665.858704 424.079437,665.575623 419.453430,662.146240 
	C418.266663,661.266541 417.336945,660.040039 416.068939,658.658569 
z"/>
<path fill="#000000" opacity="1.000000" stroke="none" 
	d="
M458.591919,271.484497 
	C450.258118,271.364075 445.930511,268.647461 444.810516,263.122223 
	C443.408539,256.205841 446.139893,249.892151 451.787109,246.995499 
	C456.291809,244.684891 462.367554,245.139679 465.823425,248.274323 
	C470.195892,252.240341 471.141815,257.167389 469.639343,262.782562 
	C468.160828,268.308289 464.678619,271.189392 458.591919,271.484497 
z"/>
<path fill="#000000" opacity="1.000000" stroke="none" 
	d="
M741.785950,390.407135 
	C747.831299,387.729095 752.979492,388.341095 756.409424,391.891449 
	C760.423584,396.046539 761.498352,403.281250 758.897827,408.641785 
	C756.147705,414.310669 752.093689,416.860748 746.746216,416.285553 
	C742.359680,415.813660 736.888733,411.462799 736.015137,406.993439 
	C734.777039,400.659332 735.431702,394.675415 741.785950,390.407135 
z"/>
<path fill="#000000" opacity="1.000000" stroke="none" 
	d="
M734.570801,467.118042 
	C742.279419,469.167084 746.283203,478.504120 742.649170,485.089050 
	C742.568909,485.234436 742.470276,485.369629 742.381592,485.510437 
	C740.024780,489.252075 725.171814,490.843658 719.878174,487.921722 
	C715.338989,485.416260 714.120667,478.096619 717.195801,472.201752 
	C718.699768,469.318817 720.726746,467.576538 724.237427,467.627106 
	C727.543030,467.674744 730.855225,467.255493 734.570801,467.118042 
z"/>
<path fill="#000000" opacity="1.000000" stroke="none" 
	d="
M234.673752,481.849792 
	C234.905991,473.927521 238.022858,469.891541 244.885712,468.184692 
	C249.988190,466.915710 255.954285,469.488190 258.481903,474.038757 
	C261.299622,479.111603 260.648834,483.954590 257.295044,488.458527 
	C253.807632,493.141937 248.817474,494.264130 243.509354,492.976318 
	C238.163574,491.679382 235.135834,487.902649 234.673752,481.849792 
z"/>
<path fill="#000000" opacity="1.000000" stroke="none" 
	d="
M259.632568,407.550629 
	C255.127197,403.521118 254.831772,399.033386 256.961151,394.128754 
	C259.048553,389.320740 262.467072,386.735992 267.944611,387.648529 
	C268.268860,387.702545 268.609589,387.650391 268.941986,387.663727 
	C272.975037,387.825439 277.686859,386.547119 279.540588,391.874939 
	C281.407410,397.240295 280.891022,402.406311 277.111145,406.879944 
	C273.937073,410.636566 266.549652,410.959961 259.632568,407.550629 
z"/>
<path fill="#000000" opacity="1.000000" stroke="none" 
	d="
M683.687683,476.138428 
	C685.504456,467.331696 692.254517,464.030487 698.678589,468.731171 
	C702.275879,471.363403 702.315674,475.590088 701.436523,479.624481 
	C700.500366,483.920441 697.929504,486.705933 693.353333,487.194794 
	C689.123901,487.646606 686.462219,485.523407 684.703735,481.877960 
	C683.883362,480.177307 683.616394,478.412933 683.687683,476.138428 
z"/>
<path fill="#000000" opacity="1.000000" stroke="none" 
	d="
M304.718964,409.292603 
	C300.365082,409.808014 297.105408,409.113739 295.103851,405.120087 
	C292.358307,399.641876 293.835663,393.320282 298.556366,391.381226 
	C304.024445,389.135193 310.629028,391.627136 312.389648,396.600647 
	C314.530731,402.648926 311.771820,407.477417 304.718964,409.292603 
z"/>
<path fill="#000000" opacity="1.000000" stroke="none" 
	d="
M542.310059,564.072815 
	C542.337097,568.703247 540.552917,571.711060 536.180847,572.101318 
	C532.347595,572.443481 530.004822,569.985168 528.946411,566.512390 
	C527.589050,562.058899 529.710388,558.112488 533.778992,557.059082 
	C537.874817,555.998596 541.176575,558.550842 542.310059,564.072815 
z"/>
<path fill="#000000" opacity="1.000000" stroke="none" 
	d="
M514.785461,700.687622 
	C519.815186,698.389160 523.785278,699.120544 526.029236,702.511963 
	C527.510864,704.751221 527.772095,707.147400 526.475586,709.539368 
	C525.128113,712.025330 522.867676,712.095154 520.442261,711.571777 
	C519.474976,711.363037 518.491760,711.229065 517.517273,711.052795 
	C511.226471,709.915649 510.125397,706.250305 514.785461,700.687622 
M519.832031,709.177734 
	C521.362488,708.149048 521.902222,706.973633 520.103210,705.756470 
	C519.061584,705.051758 517.639221,704.982300 517.048279,706.139893 
	C515.980835,708.230896 517.319153,709.094971 519.832031,709.177734 
z"/>
</svg>